HIERARCHY
ROOT root
{
	OFFSET 0.000000 0.000000 0.000000
	CHANNELS 6 Xposition Yposition Zposition Zrotation Yrotation Xrotation
	JOINT lhip
	{
		OFFSET 0.058581 -0.082280 -0.017664
		CHANNELS 3 Zrotation Yrotation Xrotation
		JOINT lknee
		{
			OFFSET 0.043451 -0.386469 0.008037
			CHANNELS 3 Zrotation Yrotation Xrotation
			JOINT lankle
			{
				OFFSET -0.014790 -0.426874 -0.037428
				CHANNELS 3 Zrotation Yrotation Xrotation
				JOINT ltoe
				{
					OFFSET 0.041054 -0.060286 0.122042
					CHANNELS 3 Zrotation Yrotation Xrotation
					End Site
					{
						OFFSET 0.000000 0.000000 0.000000
					}
				}
			}
		}
	}
	JOINT rhip
	{
		OFFSET -0.060310 -0.090513 -0.013543
		CHANNELS 3 Zrotation Yrotation Xrotation
		JOINT rknee
		{
			OFFSET -0.043257 -0.383688 -0.004843
			CHANNELS 3 Zrotation Yrotation Xrotation
			JOINT rankle
			{
				OFFSET 0.019056 -0.420046 -0.034562
				CHANNELS 3 Zrotation Yrotation Xrotation
				JOINT rtoe
				{
					OFFSET -0.034840 -0.062106 0.130323
					CHANNELS 3 Zrotation Yrotation Xrotation
					End Site
					{
						OFFSET 0.000000 0.000000 0.000000
					}
				}
			}
		}
	}
	JOINT lowerback
	{
		OFFSET 0.004439 0.124404 -0.038385
		CHANNELS 3 Zrotation Yrotation Xrotation
		JOINT upperback
		{
			OFFSET 0.004488 0.137956 0.026820
			CHANNELS 3 Zrotation Yrotation Xrotation
			JOINT chest
			{
				OFFSET -0.002265 0.056032 0.002855
				CHANNELS 3 Zrotation Yrotation Xrotation
				JOINT lowerneck
				{
					OFFSET -0.013390 0.211636 -0.033468
					CHANNELS 3 Zrotation Yrotation Xrotation
					JOINT upperneck
					{
						OFFSET 0.010113 0.088937 0.050410
						CHANNELS 3 Zrotation Yrotation Xrotation
						End Site
						{
							OFFSET 0.000000 0.000000 0.000000
						}
					}
				}
				JOINT lclavicle
				{
					OFFSET 0.071702 0.114000 -0.018898
					CHANNELS 3 Zrotation Yrotation Xrotation
					JOINT lshoulder
					{
						OFFSET 0.122921 0.045205 -0.019046
						CHANNELS 3 Zrotation Yrotation Xrotation
						JOINT lelbow
						{
							OFFSET 0.255332 -0.015649 -0.022946
							CHANNELS 3 Zrotation Yrotation Xrotation
							JOINT lwrist
							{
								OFFSET 0.265709 0.012698 -0.007375
								CHANNELS 3 Zrotation Yrotation Xrotation
								End Site
								{
									OFFSET 0.000000 0.000000 0.000000
								}
							}
						}
					}
				}
				JOINT rclavicle
				{
					OFFSET -0.082954 0.112472 -0.023707
					CHANNELS 3 Zrotation Yrotation Xrotation
					JOINT rshoulder
					{
						OFFSET -0.113228 0.046853 -0.008472
						CHANNELS 3 Zrotation Yrotation Xrotation
						JOINT relbow
						{
							OFFSET -0.260127 -0.014369 -0.031269
							CHANNELS 3 Zrotation Yrotation Xrotation
							JOINT rwrist
							{
								OFFSET -0.269108 0.006794 -0.006027
								CHANNELS 3 Zrotation Yrotation Xrotation
								End Site
								{
									OFFSET 0.000000 0.000000 0.000000
								}
							}
						}
					}
				}
			}
		}
	}
}
MOTION
Frames: 13
Frame Time: 0.033333
0.035983 0.220129 1.001612 89.451193 0.458899 88.272003 3.143260 1.054482 -2.469352 -1.722492 -7.178952 13.938807 -0.331723 9.653580 -11.442635 0.000000 -0.000000 0.000000 -0.840432 -1.823242 -1.528347 -0.936968 4.017630 13.003725 6.187367 -9.709261 -10.593832 0.000000 -0.000000 0.000000 -2.980393 3.523113 -0.735799 5.224490 -3.046440 -4.357194 -3.031562 1.036893 1.505715 0.623143 14.965502 -5.808570 -13.457650 -7.809977 25.731534 -7.884260 1.054379 5.125117 -27.324851 -4.517237 26.833261 -109.831796 -47.761696 135.154305 27.999359 -21.342034 -9.706001 19.723680 0.750323 -4.052626 43.819930 23.077391 1.753597 -94.105722 29.529063 -97.915980 -32.830154 -0.261820 -37.275735 
0.035092 0.220157 1.001271 81.895333 0.485472 88.201931 2.715487 2.125744 -0.372656 -0.963247 -3.366229 12.194111 -0.177550 11.935042 -11.683208 0.000000 -0.000000 0.000000 -1.176332 -0.412654 -2.941861 -0.510404 7.058513 13.487225 6.543281 -7.069757 -9.506383 0.000000 -0.000000 0.000000 -1.544605 3.883910 -1.016112 5.028897 -0.142491 -3.851295 -2.857185 3.155874 1.645302 3.112346 15.229272 -6.578696 -14.125172 -6.622676 26.244403 -9.681787 5.898722 3.562435 -27.281081 -1.086143 25.264274 -112.104700 -50.895301 136.923544 24.539956 -22.647695 -8.676239 21.454774 2.276628 -4.107109 40.507520 28.645852 2.073057 -92.489130 31.903506 -97.894885 -32.478880 1.009324 -37.316645 
0.033420 0.219777 1.001961 77.013043 0.601657 88.215742 2.424864 2.395335 0.520424 -0.519180 -0.457409 11.697732 0.012769 13.393757 -11.683627 0.000000 -0.000000 0.000000 -1.060311 1.046543 -4.108048 -0.323266 9.058940 14.143291 6.752765 -5.810197 -8.793774 0.000000 -0.000000 0.000000 -0.844187 4.032671 -1.030030 5.282163 1.788001 -3.712607 -2.450315 4.094206 1.635925 5.897381 14.327590 -6.949939 -13.695617 -6.797521 26.507009 -9.785612 9.536821 2.880194 -29.402119 -0.106884 23.507539 -112.779558 -52.302362 138.075433 20.085180 -23.459834 -10.082907 21.378763 2.809376 -4.364609 40.406748 33.267890 3.536478 -90.951844 33.852356 -96.876810 -32.053640 1.636913 -37.125573 
0.032669 0.218488 1.003511 76.853228 0.626515 88.472977 2.489245 2.000368 0.132467 -0.566418 0.013578 11.888222 -0.004657 13.361492 -11.339240 0.000000 -0.000000 0.000000 -0.622501 1.601713 -4.368922 -0.858228 8.976368 14.085961 6.482490 -6.220267 -8.592751 0.000000 -0.000000 0.000000 -1.292973 3.910226 -1.389843 5.555556 1.813341 -4.105309 -2.124109 3.787486 1.682383 8.740180 12.177101 -6.719002 -11.729411 -9.005931 26.282424 -9.310506 9.841873 2.884567 -30.940138 -1.635322 23.173649 -112.596312 -52.146989 138.549869 16.992494 -23.819311 -12.315586 19.870362 2.366416 -4.743801 43.314477 33.740957 5.804003 -91.156438 35.244573 -96.282011 -30.503356 0.794661 -40.373461 
0.033705 0.217361 1.004212 81.099523 0.517012 88.665477 2.933920 1.772202 -0.899047 -1.016995 -2.067866 12.366648 -0.382902 11.737600 -10.889540 0.000000 -0.000000 0.000000 -0.189503 1.051351 -3.596879 -1.571541 7.334005 13.697376 5.939667 -8.101954 -9.081597 0.000000 -0.000000 0.000000 -2.668023 3.307583 -2.049092 5.740670 0.044204 -4.510543 -2.203077 2.312744 2.119571 11.480739 10.132847 -7.199246 -9.152642 -12.284688 26.651308 -9.036547 7.210730 3.564473 -30.088367 -4.504271 23.459358 -113.035978 -50.990908 140.578514 16.614296 -24.069974 -11.981487 19.183781 2.059402 -4.893894 45.976891 31.342364 6.737613 -92.746459 34.341386 -96.350881 -29.709478 0.081082 -42.608498 
0.034637 0.216974 1.003547 87.067174 0.400592 88.793398 3.435512 1.469699 -2.129981 -1.706521 -5.153843 12.734454 -0.638188 9.660646 -10.480212 0.000000 -0.000000 0.000000 0.194018 0.419892 -2.433820 -2.110761 4.757226 13.050854 5.461254 -10.425053 -9.945134 0.000000 -0.000000 0.000000 -4.602767 2.624514 -2.118257 6.172447 -2.348776 -4.880571 -2.095124 0.715907 2.473232 12.232874 8.705278 -7.881055 -7.126623 -15.668053 26.341854 -8.271440 3.179139 4.328383 -28.837213 -7.681648 24.473157 -112.370589 -49.114521 140.438725 17.999773 -23.671610 -13.613514 18.753235 1.570231 -5.264039 47.497007 27.224615 6.291572 -94.933737 32.046354 -97.055428 -28.886932 -1.014562 -44.927581 
0.034376 0.217400 1.002661 93.301738 0.522367 89.159518 3.680446 0.950709 -4.139992 -1.913328 -8.447389 13.666542 -0.693341 7.789205 -10.287920 0.000000 -0.000000 0.000000 0.585873 -0.944323 -1.684299 -2.231410 2.264877 12.377196 5.423887 -12.384663 -10.482610 0.000000 -0.000000 0.000000 -6.103306 2.362281 -1.762242 6.765082 -4.749820 -5.383464 -1.925568 -0.766311 2.402662 11.034572 8.026862 -8.101753 -5.665349 -18.018364 25.062525 -7.172063 -1.006070 4.599954 -28.395578 -10.849331 26.572367 -109.881467 -45.928340 136.810996 21.436944 -22.125660 -16.044901 18.316210 0.561903 -5.634994 48.101368 22.623078 5.038547 -96.397031 28.988795 -97.922416 -29.049259 -2.189750 -44.238535 
0.034477 0.217631 1.002433 98.077291 0.871654 89.545463 4.033464 0.106682 -6.042549 -2.080022 -10.896415 14.964626 -0.871532 6.445241 -10.194304 0.000000 -0.000000 0.000000 1.093566 -2.291258 -0.982608 -2.184776 0.452009 11.330598 5.527262 -13.658212 -10.539437 0.000000 -0.000000 0.000000 -6.763746 2.469595 -1.492929 7.267750 -6.563469 -5.793748 -1.748988 -2.223429 2.287509 8.814792 8.539777 -7.805437 -5.534085 -18.529450 23.644381 -6.059260 -3.691902 4.848964 -29.331262 -12.882525 28.470581 -107.200716 -43.575622 134.690148 24.825920 -20.425003 -17.178540 17.842495 -1.079907 -6.070548 48.496421 19.718614 3.351649 -96.307597 27.333109 -96.934063 -31.095924 -3.316521 -43.524786 
0.035458 0.217440 1.002891 99.217752 0.925748 89.426840 4.104047 -0.238935 -5.958397 -2.061299 -11.480838 14.878714 -1.067469 6.142074 -10.132498 0.000000 -0.000000 0.000000 0.981677 -2.773518 -0.234876 -1.986922 -0.061359 10.587113 5.715577 -13.544065 -10.301702 0.000000 -0.000000 0.000000 -6.535355 2.788376 -1.273290 7.181402 -6.993772 -5.629609 -1.699095 -2.940013 1.945939 6.321725 9.645657 -7.450010 -6.801726 -16.813066 22.883676 -5.995588 -4.187048 5.841760 -29.716862 -11.731662 28.851985 -106.420787 -44.160928 133.912535 26.381843 -19.685624 -16.098743 17.560111 -1.613583 -6.401933 48.948004 19.292317 2.555351 -95.879170 26.146944 -96.960852 -30.610358 -4.419823 -44.088990 
0.036345 0.217332 1.003328 95.514028 0.682209 89.262194 3.728764 0.236426 -4.325163 -1.596713 -9.623139 13.457442 -1.036613 7.365368 -10.310619 0.000000 -0.000000 0.000000 0.198396 -2.339069 -0.645430 -1.553524 1.299800 10.935606 6.002329 -11.877822 -9.989229 0.000000 -0.000000 0.000000 -5.306802 2.983316 -1.465817 6.602582 -5.763599 -5.103779 -2.054432 -1.792066 1.472709 4.431324 11.690602 -7.236803 -9.180730 -13.625486 23.113516 -7.275058 -1.771182 6.203061 -28.794022 -7.751302 28.053731 -107.835224 -46.408189 133.639172 26.359061 -20.125265 -14.642347 18.646275 -1.040065 -5.850145 47.559388 21.809639 2.326714 -95.879868 26.315042 -98.058083 -31.245801 -3.039918 -41.436727 
0.037219 0.217223 1.002826 88.671027 0.527074 89.142183 3.247656 1.474684 -2.032588 -0.947575 -6.439970 11.593243 -0.708159 9.533976 -10.533588 0.000000 -0.000000 0.000000 -0.471904 -1.430600 -1.821582 -1.167265 4.083305 11.628261 6.158105 -9.539432 -9.488183 0.000000 -0.000000 0.000000 -3.440939 3.197894 -1.785948 5.775663 -3.157745 -4.658703 -2.604751 0.695714 1.330646 4.481867 13.214750 -7.757195 -10.872844 -10.806051 24.429472 -8.416649 2.489867 5.534290 -28.072012 -3.563293 26.257346 -109.917563 -48.929285 134.779067 24.957901 -20.777235 -13.434226 19.867493 0.251377 -4.944148 45.353596 25.593574 2.242131 -95.387687 27.721030 -98.325109 -31.635447 -1.566420 -39.649593 
0.037355 0.217561 1.001967 81.059418 0.535505 88.964997 2.733397 2.577895 0.143270 -0.378187 -2.752173 10.135801 -0.373574 11.837647 -10.886211 0.000000 -0.000000 0.000000 -0.854106 -0.124929 -3.170495 -0.779133 7.275734 12.369967 6.420710 -7.040123 -8.839796 0.000000 -0.000000 0.000000 -1.516147 3.507764 -1.655824 5.225080 -0.146072 -4.419891 -2.813029 3.028263 1.293023 6.084097 13.996072 -8.373368 -12.065369 -8.597066 25.699292 -9.735187 7.438062 4.093978 -28.359689 -0.071498 24.311399 -112.208411 -51.769776 136.554131 22.763709 -22.106368 -12.445868 21.075948 1.635630 -4.534393 42.511226 30.770990 2.488305 -94.035743 29.530154 -98.986075 -33.454280 0.479526 -37.874052 
0.036935 0.217348 1.001974 75.803136 0.606711 88.850089 2.348735 2.973604 1.205496 -0.107047 0.144322 9.837128 -0.127670 13.462662 -11.109361 0.000000 -0.000000 0.000000 -0.755567 1.483185 -4.287518 -0.717676 9.478669 13.245682 6.621337 -5.712897 -8.301480 0.000000 -0.000000 0.000000 -0.637791 3.767041 -1.480664 5.296320 2.038044 -4.281400 -2.446312 4.076035 1.134356 8.358703 13.287111 -8.168558 -12.068976 -7.970775 26.252122 -10.479118 10.868987 3.210741 -29.952847 1.583859 22.819936 -113.758365 -53.751190 138.494673 18.965666 -22.879911 -11.913405 21.149782 2.481905 -5.041547 41.453533 34.857700 3.598569 -92.467308 31.588210 -98.789302 -32.920811 0.974557 -38.379851 
